<svg width="11" height="12" viewBox="0 0 11 12" fill="none" xmlns="http://www.w3.org/2000/svg">
<g clip-path="url(#clip0_698_2394)">
<path d="M8.29091 8.50909C7.69091 9.05455 6.87273 9.38182 6 9.38182C4.03636 9.38182 2.61818 7.96364 2.61818 6C2.61818 4.03636 4.03636 2.67273 6 2.67273C6.87273 2.67273 7.69091 2.94545 8.29091 3.49091L8.72727 3.87273L10.5818 2.01818L10.0909 1.58182C9.05454 0.545455 7.58182 0 6 0C2.50909 0 0 2.50909 0 5.94545C0 9.38182 2.56364 12 6 12C7.58182 12 9.05455 11.4545 10.1455 10.4182L10.5818 9.98182L8.72727 8.12727L8.29091 8.50909Z" fill="white"/>
<path d="M5.89318 8.01805C7.00779 8.01805 7.91136 7.11448 7.91136 5.99987C7.91136 4.88526 7.00779 3.98169 5.89318 3.98169C4.77857 3.98169 3.875 4.88526 3.875 5.99987C3.875 7.11448 4.77857 8.01805 5.89318 8.01805Z" fill="white" fill-opacity="0.5"/>
</g>
<defs>
<clipPath id="clip0_698_2394">
<rect width="10.6364" height="12" fill="white"/>
</clipPath>
</defs>
</svg>