<svg width="12" height="19" viewBox="0 0 12 19" fill="none" xmlns="http://www.w3.org/2000/svg">
<path xmlns="http://www.w3.org/2000/svg" d="M5.52522 11.522C5.49153 11.4883 5.49153 11.522 5.52522 11.522L5.35676 11.4209L5.32307 11.3872L1.34761 8.55732C1.34761 8.55732 1.31392 8.55732 1.31392 8.52363L1.24654 8.45625L1.21285 8.42256H1.14547L0 7.61401L2.25725 7.95091C2.35832 7.95091 2.39201 7.9846 2.49309 8.01829C2.52678 8.01829 2.59416 8.05198 2.59416 8.05198C2.69523 8.08567 2.72892 8.11936 2.7963 8.15305C2.86368 8.18674 2.89737 8.22043 2.96475 8.25411C2.99844 8.2878 3.06582 8.32149 3.06582 8.35518C3.09951 8.38887 3.1332 8.38887 3.16689 8.42256C3.23427 8.45625 3.26796 8.48994 3.26796 8.52363C3.36903 8.6247 3.43641 8.72577 3.53749 8.79315L5.32307 11.3199L5.35676 11.3536L5.52522 11.522Z" fill="white"/>
<path xmlns="http://www.w3.org/2000/svg" d="M5.52278 15.43L5.35432 15.1605L5.32063 15.1268L0.03125 7.61401L1.17672 8.42256L1.37886 8.55732L5.35432 11.3872H5.38801L5.52278 11.4883C5.52278 11.4883 5.55647 11.4883 5.55647 11.522L5.72492 11.3872L11.0817 7.61401L5.69123 15.1605L5.65754 15.1942L5.52278 15.43Z" fill="white"/>
<path xmlns="http://www.w3.org/2000/svg" d="M5.52388 10.2406L5.35543 9.97109L5.32174 9.9374L4.00781 8.11816L5.32174 8.38768H5.35543L5.52388 8.42137L5.69233 8.38768L6.97256 8.08447L5.69233 9.97109V10.0048L5.52388 10.2406Z" fill="white"/>
<path xmlns="http://www.w3.org/2000/svg" d="M11.1238 7.57935L9.43933 7.81517L8.79921 7.91624C8.29386 7.98362 7.82219 8.25314 7.51898 8.6911L5.73339 11.2515L5.6997 11.2852L5.53125 11.521L5.73339 11.3189L5.76708 11.2852L5.53125 11.521L10.0794 8.28683L11.1238 7.57935Z" fill="white"/>
<path xmlns="http://www.w3.org/2000/svg" d="M6.37196 2.2572C6.37196 3.73954 3.8115 4.5144 3.8115 6.09781C3.77781 6.46839 3.87888 6.83898 4.04733 7.17587C4.04733 7.17587 3.07031 6.23257 3.07031 5.22188C3.07031 4.21119 4.01364 2.69516 4.01364 2.69516C4.01364 3.36895 4.28316 3.57109 4.55269 3.60478H4.58638C4.88959 3.60478 5.05804 3.36895 5.05804 3.03206C5.05804 2.69516 4.68745 2.35827 4.68745 1.68448C4.68745 1.04438 5.49602 0 5.49602 0C6.06875 0.673791 6.37196 1.44865 6.37196 2.2572Z" fill="white"/>
<path xmlns="http://www.w3.org/2000/svg" d="M5.65718 7.64617C4.84861 7.64617 4.24219 7.00607 4.24219 6.23121V6.19752C4.24219 4.47936 6.6342 4.31091 6.6342 1.98633C6.70158 2.0874 7.3417 2.96333 7.3417 3.90663C7.3417 5.08577 6.22992 5.38897 6.22992 5.96169C6.22992 6.19752 6.33099 6.36597 6.66789 6.36597C6.70158 6.36597 6.73527 6.36597 6.76896 6.33228C7.40908 6.06276 7.84705 5.45635 7.88074 4.74887C7.88074 4.78256 8.21765 7.64617 5.65718 7.64617Z" fill="white"/>
<path xmlns="http://www.w3.org/2000/svg" d="M6.70894 6.36548C6.74263 6.36548 6.77632 6.36548 6.81001 6.33179C6.47311 6.43286 5.22656 6.73607 5.22656 5.86014C5.22656 4.78207 7.07953 4.54625 7.07953 3.63663C7.07953 3.06391 6.94477 2.49118 6.64156 1.98584C6.70894 2.08691 7.34905 2.96284 7.34905 3.90614C7.34905 5.08528 6.23727 5.38848 6.23727 5.96121C6.27096 6.19703 6.40572 6.36548 6.70894 6.36548Z" fill="white"/>
<path xmlns="http://www.w3.org/2000/svg" d="M5.69235 2.86361C5.69235 3.70585 4.61426 3.63847 4.54688 3.60478H4.64795C4.95116 3.60478 5.11961 3.36895 5.11961 3.03206C5.11961 2.69516 4.74902 2.35827 4.74902 1.68448C4.74902 1.04438 5.55759 0 5.55759 0C5.28806 0.437964 5.1533 0.909618 5.11961 1.38127C5.11961 2.15613 5.69235 2.22351 5.69235 2.86361Z" fill="white"/>
<path xmlns="http://www.w3.org/2000/svg" d="M5.01462 17.5871L4.27344 17.0817H5.18308L5.48629 16.1721L5.75581 17.0817H6.66545L5.92426 17.5871L6.19379 18.463L5.4526 17.924L4.67772 18.463L5.01462 17.5871Z" fill="white"/>
<path xmlns="http://www.w3.org/2000/svg" d="M8.89744 17.5871L8.15625 17.0817H9.06589L9.3691 16.1721L9.63862 17.0817H10.5483L9.80708 17.5871L10.0766 18.463L9.33541 17.924L8.56053 18.463L8.89744 17.5871Z" fill="white"/>
<path xmlns="http://www.w3.org/2000/svg" d="M1.17869 17.5871L0.4375 17.0817H1.34714L1.65035 16.1721L1.91987 17.0817H2.82951L2.08833 17.5871L2.35785 18.463L1.61666 17.924L0.875474 18.463L1.17869 17.5871Z" fill="white"/>
</svg>