<svg width="12" height="12" viewBox="0 0 12 12" fill="none" xmlns="http://www.w3.org/2000/svg">
  <path fill-rule="evenodd" clip-rule="evenodd" d="M6 0C2.68764 0 0 2.68764 0 6C0 9.31238 2.68764 12 6 12C9.30585 12 12 9.31238 12 6C12 2.68764 9.30585 0 6 0ZM9.96311 2.76573C10.679 3.63774 11.1085 4.75054 11.1215 5.95444C10.9523 5.92193 9.26029 5.577 7.55531 5.79176C7.51627 5.70716 7.48373 5.61604 7.44469 5.52495C7.34055 5.27768 7.22344 5.02387 7.10629 4.78309C8.99347 4.0152 9.85249 2.90889 9.96311 2.76573ZM6 0.885034C7.30151 0.885034 8.4924 1.3731 9.39697 2.17354C9.30585 2.30369 8.53144 3.3384 6.70931 4.02169C5.86984 2.47939 4.93928 1.21692 4.7961 1.02169C5.18003 0.930585 5.58353 0.885034 6 0.885034ZM3.81997 1.36659C3.95662 1.54881 4.86769 2.81779 5.72018 4.32754C3.32538 4.9653 1.21041 4.95229 0.982646 4.95229C1.31453 3.36443 2.38828 2.04338 3.81997 1.36659ZM0.872018 6.00653C0.872018 5.95444 0.872018 5.90239 0.872018 5.85034C1.09328 5.85682 3.57918 5.88937 6.13665 5.12149C6.28635 5.4078 6.423 5.70064 6.55316 5.99347C6.48806 6.01301 6.41647 6.03255 6.35141 6.05205C3.70933 6.90454 2.30369 9.23426 2.18655 9.42949C1.3731 8.52495 0.872018 7.32105 0.872018 6.00653ZM6 11.128C4.8156 11.128 3.72234 10.7245 2.85683 10.0477C2.94794 9.85901 3.98914 7.85468 6.87851 6.846C6.89152 6.83948 6.89805 6.83948 6.91106 6.83299C7.63339 8.70064 7.92626 10.269 8.00434 10.718C7.38611 10.9848 6.70931 11.128 6 11.128ZM8.85682 10.2495C8.80478 9.93709 8.53144 8.44035 7.86116 6.59869C9.46856 6.34489 10.8742 6.7614 11.0499 6.81997C10.8287 8.24512 10.0087 9.47505 8.85682 10.2495Z" fill="white"/>
</svg>
  