<svg width="50" height="44" viewBox="0 0 50 44" fill="none" xmlns="http://www.w3.org/2000/svg">
<g clip-path="url(#clip0_83_834)">
<path d="M22.824 15.8661C22.824 19.1792 22.2311 22.3598 21.0451 25.4078C19.8592 28.5883 18.4756 31.1726 16.8943 33.1604C15.4449 35.1483 13.7977 37.0036 11.9529 38.7264C10.1082 40.4493 8.72457 41.642 7.80215 42.3046C6.87975 42.9672 6.2209 43.3647 5.82559 43.4973L1.08184 38.5276L3.65137 35.7446C4.70553 34.4194 6.02324 32.299 7.6045 29.3835C9.44925 26.3355 10.2399 23.7513 9.97636 21.6308C7.34095 21.2333 5.10085 20.0406 3.25606 18.0527C1.54303 15.9323 0.686523 13.4806 0.686523 10.6976C0.686523 7.91463 1.67481 5.52921 3.65137 3.54135C5.7597 1.5535 8.32925 0.55957 11.36 0.55957C14.6543 0.55957 17.3555 1.95106 19.4639 4.73406C21.7039 7.51706 22.824 11.2278 22.824 15.8661Z" fill="#F2F2F2"/>
<path d="M49.9554 15.8661C49.9554 19.1792 49.3624 22.3598 48.1765 25.4078C46.9905 28.5883 45.6069 31.1726 44.0257 33.1604C42.5762 35.1483 40.929 37.0036 39.0843 38.7264C37.2395 40.4493 35.8559 41.642 34.9335 42.3046C34.0111 42.9672 33.3522 43.3647 32.9569 43.4973L28.2132 38.5276L30.7827 35.7446C31.8369 34.4194 33.1546 32.299 34.7358 29.3835C36.5806 26.3355 37.3712 23.7513 37.1077 21.6308C34.4723 21.2333 32.2322 20.0406 30.3874 18.0527C28.6744 15.9323 27.8179 13.4806 27.8179 10.6976C27.8179 7.91463 28.8062 5.52921 30.7827 3.54135C32.8911 1.5535 35.4606 0.55957 38.4913 0.55957C41.7856 0.55957 44.4869 1.95106 46.5952 4.73406C48.8353 7.51706 49.9554 11.2278 49.9554 15.8661Z" fill="#F2F2F2"/>
</g>
<defs>
<clipPath id="clip0_83_834">
<rect width="50" height="44" fill="white"/>
</clipPath>
</defs>
</svg>
